<?xml version="1.0" standalone="no"?>
<!DOCTYPE svg PUBLIC "-//W3C//DTD SVG 20010904//EN"
 "http://www.w3.org/TR/2001/REC-SVG-20010904/DTD/svg10.dtd">
<svg version="1.0" xmlns="http://www.w3.org/2000/svg"
 width="512.000000pt" height="512.000000pt" viewBox="0 0 512.000000 512.000000"
 preserveAspectRatio="xMidYMid meet">
<metadata>
Created by potrace 1.11, written by Peter Selinger 2001-2013
</metadata>
<g transform="translate(0.000000,512.000000) scale(0.100000,-0.100000)"
fill="#000000" stroke="none">
<path d="M1685 4753 c-84 -18 -154 -73 -191 -150 l-28 -56 -1 -261 0 -261
-540 -2 c-516 -2 -543 -3 -605 -23 -128 -41 -239 -147 -292 -277 l-23 -58 -3
-597 -3 -598 2561 0 2560 0 -1 578 c0 459 -3 588 -15 629 -43 163 -175 294
-334 333 -29 7 -232 11 -580 13 l-535 2 0 261 -1 262 -30 58 c-36 71 -107 129
-177 144 -47 10 -1717 13 -1762 3z m1600 -365 c4 -4 7 -87 7 -185 l0 -178
-731 -2 -731 -3 -1 28 c0 30 0 334 1 342 0 9 1447 6 1455 -2z"/>
<path d="M0 1493 c1 -754 2 -779 50 -873 29 -57 124 -155 184 -189 112 -65
-37 -61 2356 -58 l2175 2 54 23 c104 44 182 111 239 205 61 101 61 109 62 890
l0 707 -959 0 -960 0 -3 -264 -3 -264 -31 -38 c-63 -79 -49 -77 -562 -78 -252
-1 -483 2 -515 5 -68 8 -117 41 -147 99 -18 36 -20 59 -20 290 l0 250 -960 0
-960 0 0 -707z"/>
<path d="M2190 2021 c0 -134 3 -180 13 -183 10 -3 665 -2 705 1 9 1 12 44 12
181 l0 180 -365 0 -365 0 0 -179z"/>
</g>
</svg>
